<svg width="228" height="209" viewBox="0 0 228 209" fill="none" xmlns="http://www.w3.org/2000/svg">
<path opacity="0.8" d="M30.0004 2C30.0004 2 30.0458 3.82931 30.0004 5C29.6 15.3264 20.0729 19.1661 20.0004 29.5C19.9266 40.0149 30.0004 43.9848 30.0004 54.5C30.0004 65.0152 20.0004 68.9848 20.0004 79.5C20.0004 90.0152 30.0004 93.9848 30.0004 104.5C30.0004 115.015 20.0004 118.985 20.0004 129.5C20.0004 140.015 30.0004 143.985 30.0004 154.5C30.0004 165.015 20.0004 168.985 20.0004 179.5C20.0004 190.015 29.6668 193.99 30.0004 204.5C30.0314 205.476 30.0004 207 30.0004 207" stroke="white" stroke-width="3" stroke-linecap="round"/>
<path opacity="0.8" d="M198.02 207C198.02 207 197.975 205.171 198.02 204C198.42 193.674 207.948 189.834 208.02 179.5C208.094 168.985 198.02 165.015 198.02 154.5C198.02 143.985 208.02 140.015 208.02 129.5C208.02 118.985 198.02 115.015 198.02 104.5C198.02 93.9848 208.02 90.0152 208.02 79.5C208.02 68.9848 198.02 65.0152 198.02 54.5C198.02 43.9848 208.02 40.0152 208.02 29.5C208.02 18.9848 198.354 15.0099 198.02 4.5C197.989 3.52418 198.02 2 198.02 2" stroke="white" stroke-width="3" stroke-linecap="round"/>
<path opacity="0.8" d="M216.021 154.5C216.021 143.985 226.021 140.015 226.021 129.5C226.021 118.985 216.021 115.015 216.021 104.5C216.021 93.9848 226.021 90.0152 226.021 79.5C226.021 68.9848 216.021 65.0152 216.021 54.5" stroke="white" stroke-width="3" stroke-linecap="round"/>
<path opacity="0.8" d="M12 154.5C12 143.985 2 140.015 2 129.5C2 118.985 12 115.015 12 104.5C12 93.9848 2 90.0152 2 79.5C2 68.9848 12 65.0152 12 54.5" stroke="white" stroke-width="3" stroke-linecap="round"/>
</svg>
